<svg width="30" height="30" viewBox="0 0 30 30" fill="none" xmlns="http://www.w3.org/2000/svg">
<path d="M26.1563 7.94996C22.2376 1.87496 14.2126 0.074957 8.00634 3.84371C1.95009 7.61246 9.3475e-05 15.825 3.91884 21.8812L4.23759 22.3687L2.92509 27.2812L7.83759 25.9687L8.32509 26.2875C10.4438 27.4312 12.7501 28.0875 15.0376 28.0875C17.4938 28.0875 19.9501 27.4312 22.0688 26.1187C28.1251 22.1812 29.9251 14.1375 26.1563 7.91246V7.94996ZM22.7251 20.5875C22.0688 21.5625 21.2438 22.2187 20.1001 22.3875C19.4438 22.3875 18.6188 22.7062 15.3563 21.4125C12.5813 20.1 10.2751 17.9625 8.64384 15.5062C7.66884 14.3625 7.16259 12.8812 7.01259 11.4C7.01259 10.0875 7.50009 8.94371 8.32509 8.11871C8.64384 7.79996 8.98134 7.63121 9.30009 7.63121H10.1251C10.4438 7.63121 10.7813 7.63121 10.9501 8.28746C11.2688 9.11246 12.0938 11.0812 12.0938 11.25C12.2626 11.4187 12.1876 12.675 11.4376 13.3875C11.0251 13.8562 10.9501 13.875 11.1188 14.2125C11.7751 15.1875 12.6001 16.1812 13.4063 17.0062C14.3813 17.8312 15.3751 18.4875 16.5188 18.975C16.8376 19.1437 17.1751 19.1437 17.3438 18.8062C17.5126 18.4875 18.3188 17.6625 18.6563 17.325C18.9751 17.0062 19.1438 17.0062 19.4813 17.1562L22.1063 18.4687C22.4251 18.6375 22.7626 18.7875 22.9313 18.9562C23.1001 19.4437 23.1001 20.1 22.7626 20.5875H22.7251Z" fill="#F2721B"/>
</svg>
