<svg width="37" height="24" viewBox="0 0 37 24" fill="none" xmlns="http://www.w3.org/2000/svg">
<path d="M35.4642 21.4543H32.8543V18.24C32.8543 17.6717 32.5794 17.1267 32.0899 16.7248C31.6005 16.3229 30.9366 16.0972 30.2444 16.0972H27.6346C26.9424 16.0972 26.2785 16.3229 25.7891 16.7248C25.2996 17.1267 25.0247 17.6717 25.0247 18.24V21.4543H22.4148V16.0972C22.4148 15.5288 22.1398 14.9838 21.6504 14.5819C21.1609 14.1801 20.4971 13.9543 19.8049 13.9543H17.195C16.5028 13.9543 15.839 14.1801 15.3495 14.5819C14.8601 14.9838 14.5851 15.5288 14.5851 16.0972V21.4543H11.9752V3.24003C11.9752 2.6717 11.7002 2.12666 11.2108 1.7248C10.7213 1.32293 10.0575 1.09717 9.36533 1.09717H6.75544C6.06325 1.09717 5.39942 1.32293 4.90997 1.7248C4.42052 2.12666 4.14555 2.6717 4.14555 3.24003V21.4543H1.53566C1.18956 21.4543 0.857647 21.5672 0.612922 21.7681C0.368198 21.9691 0.230713 22.2416 0.230713 22.5257C0.230713 22.8099 0.368198 23.0824 0.612922 23.2834C0.857647 23.4843 1.18956 23.5972 1.53566 23.5972H35.4642C35.8103 23.5972 36.1422 23.4843 36.387 23.2834C36.6317 23.0824 36.7692 22.8099 36.7692 22.5257C36.7692 22.2416 36.6317 21.9691 36.387 21.7681C36.1422 21.5672 35.8103 21.4543 35.4642 21.4543Z" fill="#F4F0EC"/>
<path d="M36.3869 14.2681L31.402 10.1753C32.5424 8.85902 33.0389 7.239 32.793 5.63634C32.5471 4.03368 31.5768 2.56538 30.0744 1.52247C28.572 0.479553 26.6472 -0.0618312 24.6815 0.00562346C22.7159 0.0730781 20.8528 0.744448 19.4617 1.88665C18.0705 3.02886 17.2528 4.55853 17.1707 6.17244C17.0885 7.78636 17.7479 9.36671 19.0181 10.6002C20.2883 11.8338 22.0766 12.6305 24.0286 12.8323C25.9806 13.0342 27.9537 12.6266 29.5568 11.6903L34.5417 15.7831C34.7878 15.9783 35.1174 16.0863 35.4596 16.0839C35.8017 16.0814 36.129 15.9687 36.371 15.7701C36.6129 15.5714 36.7502 15.3027 36.7531 15.0218C36.7561 14.7409 36.6246 14.4702 36.3869 14.2681ZM25.0247 10.7399C23.9923 10.7399 22.9831 10.4886 22.1248 10.0176C21.2664 9.54673 20.5973 8.87739 20.2023 8.09428C19.8072 7.31117 19.7038 6.44945 19.9052 5.61811C20.1066 4.78676 20.6038 4.02312 21.3338 3.42375C22.0638 2.82438 22.9938 2.41621 24.0064 2.25084C25.0189 2.08548 26.0684 2.17035 27.0222 2.49472C27.976 2.8191 28.7912 3.36841 29.3648 4.07319C29.9384 4.77798 30.2445 5.60657 30.2445 6.45421C30.2445 7.59085 29.6946 8.68094 28.7157 9.48467C27.7368 10.2884 26.4091 10.7399 25.0247 10.7399Z" fill="#F4F0EC"/>
</svg>
