<svg width="30" height="30" viewBox="0 0 30 30" fill="none" xmlns="http://www.w3.org/2000/svg">
<path d="M17.5 3.75V8.75C17.5 9.08152 17.6317 9.39946 17.8661 9.63388C18.1005 9.8683 18.4185 10 18.75 10H23.75" stroke="#F4F0EC" stroke-width="2.5" stroke-linecap="round" stroke-linejoin="round"/>
<path d="M17.5 3.75V8.75C17.5 9.08152 17.6317 9.39946 17.8661 9.63388C18.1005 9.8683 18.4185 10 18.75 10H23.75M6.25 25.3125C6.25 25.83 6.67 26.25 7.1875 26.25H8.75C9.08152 26.25 9.39946 26.1183 9.63388 25.8839C9.8683 25.6495 10 25.3315 10 25V23.75C10 23.4185 9.8683 23.1005 9.63388 22.8661C9.39946 22.6317 9.08152 22.5 8.75 22.5H7.5C7.16848 22.5 6.85054 22.3683 6.61612 22.1339C6.3817 21.8995 6.25 21.5815 6.25 21.25V20C6.25 19.6685 6.3817 19.3505 6.61612 19.1161C6.85054 18.8817 7.16848 18.75 7.5 18.75H9.0625C9.31114 18.75 9.5496 18.8488 9.72541 19.0246C9.90123 19.2004 10 19.4389 10 19.6875" stroke="#F4F0EC" stroke-width="2.5" stroke-linecap="round" stroke-linejoin="round"/>
<path d="M6.25 15V6.25C6.25 5.58696 6.51339 4.95107 6.98223 4.48223C7.45107 4.01339 8.08696 3.75 8.75 3.75H17.5L23.75 10V15M22.5 18.75V26.25H25M17.5 25L19.375 26.875M16.25 18.75C16.913 18.75 17.5489 19.0134 18.0178 19.4822C18.4866 19.9511 18.75 20.587 18.75 21.25V23.75C18.75 24.413 18.4866 25.0489 18.0178 25.5178C17.5489 25.9866 16.913 26.25 16.25 26.25C15.587 26.25 14.9511 25.9866 14.4822 25.5178C14.0134 25.0489 13.75 24.413 13.75 23.75V21.25C13.75 20.587 14.0134 19.9511 14.4822 19.4822C14.9511 19.0134 15.587 18.75 16.25 18.75Z" stroke="#F4F0EC" stroke-width="2.5" stroke-linecap="round" stroke-linejoin="round"/>
</svg>
