<svg width="30" height="30" viewBox="0 0 30 30" fill="none" xmlns="http://www.w3.org/2000/svg">
<path d="M7.5 3.75C6.50544 3.75 5.55161 4.14509 4.84835 4.84835C4.14509 5.55161 3.75 6.50544 3.75 7.5V22.5C3.75 23.4946 4.14509 24.4484 4.84835 25.1517C5.55161 25.8549 6.50544 26.25 7.5 26.25H22.5C23.4946 26.25 24.4484 25.8549 25.1517 25.1517C25.8549 24.4484 26.25 23.4946 26.25 22.5V7.5C26.25 6.50544 25.8549 5.55161 25.1517 4.84835C24.4484 4.14509 23.4946 3.75 22.5 3.75H7.5ZM16.6675 20.0688C17.5675 20.7938 18.465 21.15 19.3625 21.1413C19.9125 21.1413 20.335 21.0412 20.6275 20.8387C20.7641 20.7501 20.8752 20.6274 20.9499 20.4827C21.0247 20.3381 21.0605 20.1764 21.0538 20.0137C21.0556 19.8363 21.0184 19.6606 20.945 19.4991C20.8716 19.3375 20.7636 19.1941 20.6288 19.0787C20.335 18.8225 19.78 18.5663 18.9637 18.3088C17.9837 18.025 17.2262 17.6588 16.695 17.2088C16.1725 16.7588 15.9075 16.1313 15.8975 15.325C15.8975 14.5638 16.2275 13.9275 16.8875 13.4137C17.53 12.9012 18.35 12.6437 19.35 12.6437C20.7425 12.6437 21.8613 12.9825 22.7038 13.6612L21.7412 15.16C21.3947 14.8905 20.9971 14.694 20.5725 14.5825C20.1909 14.4549 19.7923 14.3853 19.39 14.3763C18.915 14.3763 18.5337 14.4638 18.2487 14.6375C17.965 14.8125 17.8237 15.0413 17.8237 15.325C17.8237 15.6375 17.9975 15.9025 18.345 16.1225C18.695 16.3337 19.29 16.5675 20.1325 16.8237C21.15 17.1262 21.875 17.53 22.305 18.0338C22.7362 18.5375 22.9513 19.18 22.9513 19.9588C22.9513 20.7563 22.645 21.4438 22.03 22.0213C21.425 22.59 20.545 22.8875 19.39 22.915C17.8775 22.915 16.6125 22.4613 15.595 21.5538L16.6675 20.0688ZM9.755 20.8663C10.0487 21.05 10.4013 21.1413 10.8138 21.1413C11.245 21.1413 11.6012 21.0175 11.8862 20.77C12.17 20.5137 12.3125 20.0687 12.3125 19.4362V12.8087H14.1688V19.7938C14.1413 20.875 13.83 21.655 13.2337 22.1312C12.9084 22.4079 12.5292 22.6139 12.12 22.7362C11.741 22.8517 11.3474 22.9119 10.9512 22.915C10.2637 22.915 9.65375 22.7962 9.1225 22.5575C8.55375 22.3012 8.0775 21.8475 7.6925 21.1963L8.985 20.1375C9.2225 20.4588 9.48 20.7013 9.755 20.8663Z" fill="#F4F0EC"/>
</svg>
