<svg width="30" height="24" viewBox="0 0 30 24" fill="none" xmlns="http://www.w3.org/2000/svg">
<path d="M14.8266 21.1876C14.7281 21.1876 14.6297 21.1594 14.5406 21.1126L13.6406 20.5782C13.5047 20.5032 13.5703 20.4751 13.6172 20.461C13.7953 20.4001 13.8328 20.386 14.025 20.2735C14.0438 20.2641 14.0719 20.2688 14.0906 20.2782L14.7844 20.6907C14.8078 20.7047 14.8453 20.7047 14.8688 20.6907L17.5781 19.1251C17.6016 19.111 17.6203 19.0829 17.6203 19.0501V15.9235C17.6203 15.8907 17.6063 15.8626 17.5781 15.8485L14.8688 14.2876C14.8453 14.2735 14.8125 14.2735 14.7844 14.2876L12.075 15.8485C12.0469 15.8626 12.0328 15.8954 12.0328 15.9235V19.0501C12.0328 19.0782 12.0516 19.1063 12.075 19.1204L12.8156 19.5469C13.2188 19.7485 13.4672 19.5094 13.4672 19.2751V16.186C13.4672 16.1438 13.5 16.1063 13.5469 16.1063H13.8891C13.9312 16.1063 13.9688 16.1391 13.9688 16.186V19.2751C13.9688 19.8141 13.6781 20.1188 13.1672 20.1188C13.0125 20.1188 12.8859 20.1188 12.5438 19.9501L11.8312 19.5422C11.6578 19.4391 11.5453 19.2516 11.5453 19.0501V15.9235C11.5453 15.7219 11.6531 15.5297 11.8312 15.4313L14.5406 13.8657C14.7141 13.7672 14.9391 13.7672 15.1078 13.8657L17.8172 15.4313C17.9906 15.5344 18.1031 15.7219 18.1031 15.9235V19.0501C18.1031 19.2516 17.9953 19.4438 17.8172 19.5422L15.1078 21.1079C15.0281 21.1594 14.9297 21.1876 14.8266 21.1876ZM17.0156 18.1032C17.0156 17.5172 16.6219 17.3626 15.7875 17.2501C14.9437 17.1376 14.8594 17.0813 14.8594 16.8844C14.8594 16.7204 14.9297 16.5047 15.5531 16.5047C16.1109 16.5047 16.3172 16.6266 16.4016 17.0016C16.4109 17.0391 16.4391 17.0626 16.4766 17.0626H16.8281C16.8516 17.0626 16.8703 17.0532 16.8844 17.0391C16.8984 17.0204 16.9078 17.0016 16.9031 16.9782C16.8469 16.3313 16.4203 16.0313 15.5531 16.0313C14.7797 16.0313 14.3203 16.3594 14.3203 16.9032C14.3203 17.4985 14.7797 17.6579 15.5203 17.7329C16.4062 17.8219 16.4766 17.9485 16.4766 18.1219C16.4766 18.4266 16.2328 18.5532 15.6609 18.5532C14.9438 18.5532 14.7844 18.3751 14.7328 18.0188C14.7281 17.9813 14.6953 17.9532 14.6531 17.9532H14.3016C14.2594 17.9532 14.2219 17.986 14.2219 18.0329C14.2219 18.4876 14.4703 19.0313 15.6562 19.0313C16.5234 19.0313 17.0156 18.6938 17.0156 18.1032ZM19.5703 15.7547C19.5703 16.0407 19.3359 16.2751 19.05 16.2751C18.7641 16.2751 18.5297 16.0407 18.5297 15.7547C18.5297 15.4594 18.7734 15.2344 19.05 15.2344C19.3312 15.2297 19.5703 15.4594 19.5703 15.7547ZM19.4859 15.7547C19.4859 15.511 19.2891 15.3188 19.0453 15.3188C18.8062 15.3188 18.6094 15.511 18.6094 15.7547C18.6094 15.9985 18.8062 16.1954 19.0453 16.1954C19.2891 16.1907 19.4859 15.9938 19.4859 15.7547ZM19.275 16.0454H19.1531C19.1484 16.0172 19.1297 15.8672 19.1297 15.8626C19.1203 15.8297 19.1109 15.811 19.0687 15.811H18.9656V16.0454H18.8531V15.4594H19.0547C19.125 15.4594 19.2609 15.4594 19.2609 15.6141C19.2609 15.7219 19.1906 15.7454 19.1484 15.7594C19.2281 15.7641 19.2328 15.8157 19.2469 15.8907C19.2516 15.9376 19.2609 16.0172 19.275 16.0454ZM19.1437 15.6329C19.1437 15.5532 19.0875 15.5532 19.0594 15.5532H18.9656V15.7172H19.0547C19.1297 15.7172 19.1437 15.6657 19.1437 15.6329ZM6.43594 8.95318C6.43594 8.82661 6.37031 8.71411 6.2625 8.65318L3.38906 6.99849C3.34219 6.97036 3.28594 6.9563 3.22969 6.95161H3.20156C3.14531 6.95161 3.09375 6.97036 3.04219 6.99849L0.173438 8.65318C0.065625 8.71411 0 8.8313 0 8.95318L0.0046875 13.4063C0.0046875 13.4672 0.0375 13.5235 0.0890625 13.5563C0.140625 13.5891 0.20625 13.5891 0.2625 13.5563L1.96875 12.5766C2.07656 12.511 2.14219 12.3985 2.14219 12.2766V10.1954C2.14219 10.0735 2.20781 9.9563 2.31563 9.89536L3.04219 9.47818C3.09844 9.44536 3.15469 9.4313 3.21562 9.4313C3.27656 9.4313 3.3375 9.44536 3.38906 9.47818L4.11563 9.89536C4.22344 9.9563 4.28906 10.0735 4.28906 10.1954V12.2766C4.28906 12.3985 4.35469 12.5157 4.4625 12.5766L6.16875 13.5563C6.22031 13.5891 6.29063 13.5891 6.34219 13.5563C6.39375 13.5282 6.42656 13.4672 6.42656 13.4063L6.43594 8.95318ZM22.1484 4.09224V12.361C22.1484 12.4829 22.0828 12.6001 21.975 12.661L19.1016 14.3204C18.9937 14.3813 18.8625 14.3813 18.7547 14.3204L15.8812 12.661C15.7734 12.6001 15.7078 12.4829 15.7078 12.361V9.04224C15.7078 8.92036 15.7734 8.80318 15.8812 8.74224L18.7547 7.08286C18.8625 7.02193 18.9937 7.02193 19.1016 7.08286L19.8187 7.49536C19.8984 7.54224 20.0016 7.4813 20.0016 7.39224V2.98599C20.0016 2.85474 20.1422 2.77036 20.2594 2.83599L21.9703 3.79224C22.0781 3.84849 22.1484 3.96568 22.1484 4.09224ZM19.9922 10.1344C19.9922 10.1016 19.9734 10.0735 19.95 10.0594L18.9656 9.48755C18.9375 9.47349 18.9047 9.47349 18.8766 9.48755L17.8922 10.0594C17.8641 10.0735 17.85 10.1016 17.85 10.1344V11.2735C17.85 11.3063 17.8688 11.3344 17.8922 11.3485L18.8766 11.9157C18.9047 11.9297 18.9375 11.9297 18.9609 11.9157L19.9453 11.3485C19.9734 11.3344 19.9875 11.3063 19.9875 11.2735V10.1344H19.9922ZM29.8266 10.1016C29.9344 10.0407 30 9.92349 30 9.80161V9.00005C30 8.87818 29.9344 8.76099 29.8266 8.70005L26.9719 7.04068C26.8641 6.97974 26.7328 6.97974 26.625 7.04068L23.7516 8.70005C23.6438 8.76099 23.5781 8.87818 23.5781 9.00005V12.3188C23.5781 12.4454 23.6438 12.5579 23.7516 12.6188L26.6062 14.2454C26.7094 14.3063 26.8406 14.3063 26.9484 14.2454L28.6734 13.2844C28.7906 13.2188 28.7906 13.0501 28.6734 12.9844L25.7812 11.3251C25.725 11.2922 25.6922 11.236 25.6922 11.1751V10.1344C25.6922 10.0735 25.725 10.0172 25.7812 9.98443L26.6813 9.46411C26.7328 9.4313 26.8031 9.4313 26.8547 9.46411L27.7547 9.98443C27.8062 10.0172 27.8438 10.0735 27.8438 10.1344V10.9501C27.8438 11.0813 27.9891 11.1657 28.1062 11.1001L29.8266 10.1016ZM26.2031 10.2657C26.1844 10.2797 26.1703 10.2985 26.1703 10.3219V10.9594C26.1703 10.9829 26.1844 11.0063 26.2031 11.0157L26.7562 11.3344C26.775 11.3485 26.8031 11.3485 26.8219 11.3344L27.375 11.0157C27.3937 11.0016 27.4078 10.9829 27.4078 10.9594V10.3219C27.4078 10.2985 27.3937 10.2751 27.375 10.2657L26.8219 9.94693C26.8031 9.93286 26.775 9.93286 26.7562 9.94693L26.2031 10.2657ZM14.2875 12.3047V9.00474C14.2875 8.88286 14.2125 8.76568 14.1047 8.70474L11.2406 7.05474C11.1422 6.99849 11.0062 6.98911 10.8937 7.05474L8.02969 8.70474C7.92188 8.76568 7.84687 8.87818 7.84687 9.00474V12.3047C7.84687 12.436 7.93594 12.5485 8.03437 12.6047L10.9031 14.2547C11.0156 14.3204 11.1469 14.3157 11.25 14.2547L14.1094 12.6047C14.1938 12.5579 14.2547 12.4782 14.2781 12.3844C14.2828 12.361 14.2875 12.3329 14.2875 12.3047ZM10.8047 6.45005L10.7672 6.47349H10.8188L10.8047 6.45005ZM14.3766 12.5532L14.3578 12.5204V12.5626L14.3766 12.5532Z" fill="#F4F0EC"/>
</svg>
