<svg width="30" height="30" viewBox="0 0 30 30" fill="none" xmlns="http://www.w3.org/2000/svg">
<g clip-path="url(#clip0_229_14410)">
<path d="M11.2276 20.7181C11.2459 21.2395 10.9075 21.3676 10.6453 20.8554C7.73047 15.5257 3.91326 14.4525 0.596036 15.5136C-0.599217 15.477 0.327677 12.7574 0.596036 12.0255C0.864396 11.2938 3.5474 11.806 4.76697 12.2206C6.10848 7.58629 4.46205 5.92768 4.12063 5.48864C3.7792 5.04959 4.21203 4.88494 4.21203 4.88494C4.21203 4.88494 6.99266 4.00686 8.16348 3.76903C9.33424 3.53119 9.62088 3.90321 9.86475 4.95203C10.7917 8.68393 7.21221 13.3549 7.21221 13.3549C7.21221 13.3549 7.5476 14.0257 8.49524 14.294C11.1501 11.8061 11.8954 8.15951 12.0235 5.67766C12.0235 5.67766 11.9319 4.79348 12.6454 5.23252C13.3589 5.67157 15.92 7.8485 16.3773 11.0591C16.5297 12.3609 15.4017 12.9402 15.4017 12.9402C12.6577 14.9038 10.0861 15.5416 9.75371 15.7893C11.1685 17.7944 11.2917 20.1785 11.2276 20.7181ZM12.0417 17.3064C12.0052 17.4985 12.2064 18.6235 12.0417 19.5565C11.7673 20.2516 11.6747 20.6724 12.215 21.0931C12.7552 21.514 16.792 23.4164 19.158 25.9531C20.0635 26.8739 20.5208 25.7306 19.8531 25.2001C19.6702 24.9988 18.8104 24.2306 18.8287 23.9653C18.847 23.7 19.3409 24.2123 19.5238 24.4043C19.0299 23.4073 20.1092 22.1359 21.2617 23.572C21.7313 24.0262 21.402 25.0995 20.9996 25.3922C21.4405 24.9513 20.6733 23.8524 20.0604 24.4653C19.7434 24.7702 20.6153 25.4592 20.8105 25.63C21.0056 25.8007 21.7007 25.2214 21.9447 24.819C22.1242 24.5691 22.3822 24.3586 22.7558 22.7457C22.8747 22.328 23.0288 22.1767 23.4021 21.8033C23.7755 21.4299 29.2195 16.8674 29.8232 14.9464C30.1769 13.9464 30.0061 13.5927 29.2561 14.3062C28.5061 15.0196 24.3533 18.1296 22.7801 18.5686C21.2069 19.0077 20.9325 18.2119 21.1612 18.0198C21.3002 17.8806 24.7984 14.0989 20.911 16.1356C19.4873 16.66 18.097 15.5014 17.8043 14.4647C17.1869 12.4905 17.2067 12.0987 15.8042 13.3061C15.048 13.9281 13.7065 14.5989 13.1943 14.7818C11.6576 15.1477 11.0478 16.8673 12.2918 17.038C13.5357 17.2088 14.2095 17.0137 13.8711 17.3704C13.5327 17.7272 13.0296 18.0473 13.5967 18.3583C14.1638 18.6692 15.2467 19.4376 15.3089 19.5108C15.3712 19.5839 15.8742 19.648 16.0206 19.2821C16.1669 18.9162 16.0389 18.8156 15.9383 18.7607C15.8376 18.7058 15.9474 18.5412 16.1853 18.5686C16.4231 18.5961 16.9902 18.3766 17.1274 18.2759C17.2646 18.1753 18.8744 17.91 19.2678 18.468C18.8213 18.6075 18.6915 18.3186 18.0604 18.5412C17.7143 18.675 16.8739 18.7814 16.4779 19.6754C16.1821 20.3431 16.0724 21.7212 14.8651 21.331C13.6576 20.9407 12.4167 20.5718 12.6089 19.3553C12.8009 18.1387 12.7187 17.3521 12.0417 17.3064Z" fill="#F4F0EC"/>
</g>
<defs>
<clipPath id="clip0_229_14410">
<rect width="30" height="30" fill="white"/>
</clipPath>
</defs>
</svg>
