<svg width="38" height="30" viewBox="0 0 38 30" fill="none" xmlns="http://www.w3.org/2000/svg">
<path d="M14.0945 17.904L17.2238 20.5233C18.5821 19.7011 20.0271 18.689 21.425 17.5668C26.3653 13.5865 28.3358 10.2526 27.5738 9.61424C26.8088 8.98083 22.7096 10.5331 17.7708 14.5116C16.3707 15.64 15.1164 16.804 14.0945 17.904Z" fill="#F4F0EC"/>
<path d="M13.6247 18.4248C13.2212 18.8854 12.8659 19.3295 12.5641 19.7517C13.0371 19.8552 13.4914 20.0316 13.9021 20.2852L13.9663 20.3265C14.5254 20.6892 14.9127 21.1561 15.1145 21.673C15.5827 21.4486 16.073 21.1898 16.5813 20.8995L13.6247 18.4248Z" fill="#F4F0EC"/>
<path d="M13.5019 20.8393L13.4342 20.7962C12.8735 20.4502 12.2108 20.2815 11.5417 20.2815C10.6146 20.2815 9.67504 20.6051 8.97586 21.2279C7.28192 22.7352 6.90266 24.8015 6.82734 25.8991C6.81859 26.0427 6.94374 26.114 6.98255 26.1321C7.02857 26.1546 7.15221 26.1989 7.28725 26.1258C8.72213 25.3619 10.0726 24.9939 11.9472 24.8565C13.3315 24.7522 14.1094 23.9289 14.3757 23.193C14.6286 22.494 14.532 21.509 13.5019 20.8393Z" fill="#F4F0EC"/>
<path d="M6.6071 12.4114L7.12749 11.9842C7.27965 11.8592 7.52615 11.8592 7.67831 11.9842C7.83047 12.1091 7.83047 12.3115 7.67831 12.4364L7.15792 12.8637L8.99455 14.3717L10.0593 13.4977C10.2114 13.3728 10.4579 13.3728 10.6101 13.4977C10.7622 13.6227 10.7622 13.825 10.6101 13.95L9.54538 14.8239L11.3822 16.332L11.9023 15.9045C12.0545 15.7796 12.301 15.7796 12.4531 15.9045C12.6053 16.0295 12.6053 16.2319 12.4531 16.3568L11.933 16.7843L13.1942 17.8198C14.2311 16.6673 15.5372 15.4382 16.9951 14.2463L9.82949 8.36238C9.44681 8.0488 8.82294 8.0488 8.44026 8.36238L5.75271 10.5693C5.37003 10.8835 5.37003 11.3957 5.75271 11.7099L6.6071 12.4114Z" fill="#F4F0EC"/>
<path d="M31.272 0H4.20752C2.32566 0 0.794922 1.25682 0.794922 2.80161V4.68684H34.6755V2.79973C34.6755 2.41365 34.5801 2.04561 34.4077 1.71064C33.8896 0.706297 32.6792 0 31.272 0ZM4.36025 3.08903C3.85826 3.08903 3.45132 2.75491 3.45132 2.34275C3.45132 1.93059 3.85826 1.59648 4.36025 1.59648C4.86224 1.59648 5.26917 1.93059 5.26917 2.34275C5.26917 2.75491 4.86224 3.08903 4.36025 3.08903ZM7.50899 3.08903C7.007 3.08903 6.60006 2.75491 6.60006 2.34275C6.60006 1.93059 7.007 1.59648 7.50899 1.59648C8.01093 1.59648 8.41786 1.93059 8.41786 2.34275C8.41786 2.75491 8.01093 3.08903 7.50899 3.08903ZM10.6577 3.08903C10.1557 3.08903 9.7488 2.75491 9.7488 2.34275C9.7488 1.93059 10.1557 1.59648 10.6577 1.59648C11.1597 1.59648 11.5666 1.93059 11.5666 2.34275C11.5666 2.75491 11.1597 3.08903 10.6577 3.08903ZM20.0551 2.66231H18.1398C17.9245 2.66231 17.7502 2.51926 17.7502 2.34248C17.7502 2.1657 17.9245 2.02265 18.1398 2.02265H20.0551C20.2704 2.02265 20.4446 2.1657 20.4446 2.34248C20.4446 2.51926 20.2704 2.66231 20.0551 2.66231ZM32.0169 2.66231H22.2299C22.0146 2.66231 21.8403 2.51926 21.8403 2.34248C21.8403 2.1657 22.0146 2.02265 22.2299 2.02265H32.0169C32.2322 2.02265 32.4064 2.1657 32.4064 2.34248C32.4064 2.51926 32.2322 2.66231 32.0169 2.66231Z" fill="#F4F0EC"/>
<path d="M17.3569 21.2376L18.5447 22.2128L19.6096 21.3385C19.7618 21.2135 20.0083 21.2135 20.1605 21.3385C20.3126 21.4634 20.3126 21.6658 20.1605 21.7907L19.0955 22.6651L20.9321 24.173L21.4523 23.7459C21.6045 23.621 21.851 23.621 22.0031 23.7459C22.1553 23.8708 22.1553 24.0732 22.0031 24.1982L21.4829 24.6253L23.3197 26.1333L24.3844 25.2588C24.5366 25.1339 24.7831 25.1339 24.9353 25.2588C25.0874 25.3838 25.0874 25.5862 24.9353 25.7111L23.8705 26.5856L24.7226 27.2852C25.0962 27.5913 25.7391 27.5913 26.1119 27.2852L28.7998 25.0789C28.9877 24.9265 29.0908 24.7266 29.0916 24.5142C29.0923 24.2981 28.9888 24.0932 28.7998 23.9383L21.7784 18.1733C20.282 19.3617 18.7736 20.4055 17.3569 21.2376Z" fill="#F4F0EC"/>
<path d="M37.0138 27.1984V2.80159C37.0138 1.28159 35.5331 0.046795 33.6973 0.00732422C34.3206 0.374977 34.8227 0.873847 35.1254 1.46177C35.338 1.87377 35.4557 2.32654 35.4557 2.80159V27.1984C35.4557 28.3515 34.7568 29.3681 33.6954 29.9928C35.5321 29.9542 37.0138 28.7189 37.0138 27.1984Z" fill="#F4F0EC"/>
<path d="M4.20752 29.9999H31.272C33.1493 29.9999 34.6766 28.7431 34.6766 27.1983V5.32642H0.794922V27.1983C0.794922 28.7431 2.32566 29.9999 4.20752 29.9999ZM5.20189 10.1169L7.88944 7.91002C8.57644 7.34657 9.69331 7.34657 10.3803 7.91002L17.5519 13.7989C21.6298 10.5819 26.6244 7.91037 28.1292 9.16621C29.6412 10.4316 26.4033 14.3698 22.3327 17.7239L29.3506 23.486C29.6877 23.7621 29.8722 24.1281 29.8706 24.516C29.8691 24.9002 29.6839 25.2612 29.3487 25.5323L26.6627 27.7374C26.3295 28.0116 25.8871 28.1622 25.4173 28.1622C24.9478 28.1622 24.5054 28.0116 24.1718 27.7374L20.6577 24.8521L20.6565 24.8515L20.6558 24.8505L18.2703 22.8919L18.2691 22.8913L18.2683 22.8903L16.7079 21.6091C16.2085 21.8849 15.7263 22.1275 15.2607 22.3422C15.2868 22.6803 15.2482 23.028 15.1224 23.3754C14.6967 24.5516 13.4779 25.3831 12.0176 25.4936C10.2559 25.6229 9.04852 25.9509 7.70989 26.6636C7.53224 26.7573 7.33024 26.8048 7.12863 26.8048C6.94375 26.8048 6.75926 26.7648 6.59226 26.6861C6.23697 26.5168 6.02889 26.2026 6.04943 25.8647C6.14871 24.4179 6.63715 22.3653 8.40336 20.7943C9.30392 19.9918 10.5354 19.6034 11.7356 19.6509C12.0189 19.2367 12.3532 18.801 12.7361 18.3481L11.1088 17.012L11.1065 17.0107L11.105 17.0088L5.20189 12.1621C4.51564 11.598 4.51564 10.681 5.20189 10.1169Z" fill="#F4F0EC"/>
</svg>
