<svg width="32" height="30" viewBox="0 0 32 30" fill="none" xmlns="http://www.w3.org/2000/svg">
<path fill-rule="evenodd" clip-rule="evenodd" d="M18.2217 30H5.72786C5.38498 30 5.08496 29.7713 5.08496 29.4721C5.08496 23.5777 3.62771 20.0762 2.44905 17.261C1.61327 15.2551 0.884644 13.4956 0.884644 11.4194C0.884644 5.12023 6.86366 0 14.2356 0C17.6002 0 20.8147 1.05572 23.3006 3.0088C25.7651 4.92669 27.2866 7.54839 27.5866 10.3812C27.5866 10.3988 27.5866 10.3988 27.5866 10.3988C27.6081 10.8035 28.5081 11.7537 29.2368 12.5279C30.6512 14.0587 32.1084 15.6598 31.4012 16.7859C30.9298 17.5601 29.7082 17.7361 28.6582 17.7537V19.9707H23.4292C22.3577 19.9707 21.4362 20.6745 21.4362 21.5543C21.4362 22.4516 22.3577 23.2082 23.4292 23.2082H28.6582V23.261C28.6582 24.563 27.3723 25.6188 25.7865 25.6188H20.8576C19.7432 25.6188 18.8646 26.3578 18.8646 27.3079V29.4721C18.8646 29.7713 18.586 30 18.2217 30ZM28.6582 20.5689V22.61H23.4292C22.7434 22.61 22.1434 22.1349 22.1434 21.5543C22.1434 20.9736 22.7434 20.5689 23.4292 20.5689H28.6582ZM19.1646 13.8827C21.3933 13.8827 23.2149 12.3871 23.2149 10.5572C23.2149 9.7654 22.872 9.02639 22.2505 8.41056L22.1434 8.32258L22.1862 8.19941C22.272 7.97067 22.2934 7.74194 22.2934 7.4956C22.2934 6.07038 20.879 4.92669 19.1646 4.92669C18.886 4.92669 18.6074 4.94428 18.3502 5.01466L18.1359 5.06745L18.0288 4.92669C17.1287 3.87097 15.65 3.16716 14.0856 3.16716C12.7784 3.16716 11.5569 3.58944 10.6568 4.34604C9.7996 5.04985 9.28527 5.9824 9.24241 6.98534L9.22098 7.19648L8.96382 7.21408C6.79937 7.28446 5.08496 8.76246 5.08496 10.5396C5.08496 11.4369 5.51356 12.2815 6.28505 12.915C7.05654 13.5484 8.08518 13.8827 9.15669 13.8827H15.2429L14.1928 16.3109C14.1285 16.4516 14.1928 16.6276 14.3857 16.6804C14.4285 16.6979 14.4714 16.6979 14.5142 16.6979C14.6643 16.6979 14.8143 16.6276 14.8571 16.5044L15.9929 13.8827H19.1646ZM9.15669 7.79472C9.26384 7.79472 9.26384 7.79472 9.3067 7.81232C9.39243 7.84751 9.49958 7.84751 9.5853 7.84751C9.77817 7.84751 9.94961 7.72434 9.94961 7.54839V7.14369C9.94961 5.261 11.7926 3.7478 14.0856 3.7478C15.5857 3.7478 17.0001 4.5044 17.6859 5.59531C17.7288 5.64809 17.8145 5.70088 17.9002 5.71847C18.0074 5.75367 18.0931 5.73607 18.1788 5.70088C18.4788 5.54252 18.8003 5.50733 19.1432 5.50733C20.4933 5.50733 21.5648 6.40469 21.5648 7.4956C21.5648 7.74194 21.5433 8.02346 21.3933 8.2522C21.329 8.35777 21.3719 8.49853 21.479 8.58651C22.1005 9.11437 22.5077 9.80059 22.5077 10.5396C22.5077 12.0528 21.0076 13.3021 19.1646 13.3021H16.2501L17.493 10.4692C17.5359 10.3636 17.5145 10.2581 17.4073 10.1701C17.3216 10.0821 17.1716 10.0645 17.043 10.0997L12.6284 11.2258L14.1499 7.1085C14.1928 6.96774 14.0856 6.79179 13.9142 6.7566C13.7213 6.70381 13.5285 6.79179 13.4642 6.95015L11.7497 11.5777C11.7069 11.6833 11.7497 11.7889 11.8355 11.8768C11.9426 11.9472 12.0712 11.9824 12.1998 11.9472L16.593 10.8211L15.5 13.3021H9.15669C7.29227 13.3021 5.81359 12.088 5.81359 10.5396C5.81359 9.02639 7.29227 7.79472 9.15669 7.79472Z" fill="#F4F0EC"/>
</svg>
