<svg width="31" height="30" viewBox="0 0 31 30" fill="none" xmlns="http://www.w3.org/2000/svg">
<g clip-path="url(#clip0_6_115)">
<path d="M14.9324 0.00854492C7.30513 0.00854492 7.78137 3.31619 7.78137 3.31619L7.78984 6.74302H15.0684V7.77184H4.89889C4.89889 7.77184 0.0181885 7.21831 0.0181885 14.9142C0.0181885 22.6103 4.27819 22.3374 4.27819 22.3374H6.82054V18.7661C6.82054 18.7661 6.68348 14.5061 11.0125 14.5061H18.2316C18.2316 14.5061 22.2875 14.5716 22.2875 10.5862V3.99655C22.2875 3.99655 22.9035 0.00854492 14.9324 0.00854492ZM10.919 2.31302C11.091 2.31286 11.2614 2.34662 11.4203 2.41237C11.5792 2.47812 11.7236 2.57457 11.8453 2.69619C11.9669 2.81781 12.0633 2.96222 12.1291 3.12115C12.1948 3.28009 12.2286 3.45043 12.2284 3.62243C12.2286 3.79443 12.1948 3.96477 12.1291 4.1237C12.0633 4.28264 11.9669 4.42705 11.8453 4.54867C11.7236 4.67029 11.5792 4.76673 11.4203 4.83248C11.2614 4.89823 11.091 4.93199 10.919 4.93184C10.747 4.93199 10.5767 4.89823 10.4177 4.83248C10.2588 4.76673 10.1144 4.67029 9.99277 4.54867C9.87115 4.42705 9.77471 4.28264 9.70896 4.1237C9.64321 3.96477 9.60945 3.79443 9.6096 3.62243C9.60945 3.45043 9.64321 3.28009 9.70896 3.12115C9.77471 2.96222 9.87115 2.81781 9.99277 2.69619C10.1144 2.57457 10.2588 2.47812 10.4177 2.41237C10.5767 2.34662 10.747 2.31286 10.919 2.31302Z" fill="#F4F0EC"/>
<path d="M15.149 29.8972C22.7763 29.8972 22.3001 26.5895 22.3001 26.5895L22.2916 23.1628H15.0129V22.134H25.1825C25.1825 22.134 30.0632 22.6875 30.0632 14.9914C30.0632 7.29539 25.8032 7.56834 25.8032 7.56834H23.2608V11.1395C23.2608 11.1395 23.3979 15.3995 19.0688 15.3995H11.8498C11.8498 15.3995 7.79387 15.334 7.79387 19.3195V25.9093C7.79387 25.9093 7.17799 29.8972 15.1489 29.8972H15.149ZM19.1625 27.5929C18.9905 27.5931 18.8201 27.5593 18.6612 27.4936C18.5023 27.4278 18.3578 27.3314 18.2362 27.2098C18.1146 27.0881 18.0182 26.9437 17.9524 26.7848C17.8867 26.6259 17.8529 26.4555 17.853 26.2835C17.8529 26.1115 17.8866 25.9412 17.9524 25.7822C18.0181 25.6233 18.1146 25.4788 18.2362 25.3572C18.3578 25.2356 18.5022 25.1391 18.6612 25.0734C18.8201 25.0076 18.9905 24.9738 19.1625 24.974C19.3345 24.9738 19.5048 25.0076 19.6637 25.0733C19.8227 25.1391 19.9671 25.2355 20.0887 25.3572C20.2103 25.4788 20.3068 25.6232 20.3725 25.7821C20.4383 25.9411 20.472 26.1114 20.4719 26.2834C20.472 26.4554 20.4383 26.6257 20.3725 26.7847C20.3068 26.9436 20.2103 27.088 20.0887 27.2096C19.9671 27.3313 19.8227 27.4277 19.6637 27.4934C19.5048 27.5592 19.3345 27.5931 19.1625 27.5929Z" fill="#F4F0EC"/>
</g>
<defs>
<clipPath id="clip0_6_115">
<rect width="30.12" height="30" fill="white"/>
</clipPath>
</defs>
</svg>
